<svg width="308" height="175" viewBox="0 0 308 175" fill="none" xmlns="http://www.w3.org/2000/svg">
<path d="M44.619 107.257C44.619 107.257 40.8313 90.4505 31.4546 86.846C21.378 82.9739 20.2766 92.5513 30.5076 100.079C37.5273 105.239 44.619 107.257 44.619 107.257Z" fill="#7F784B"/>
<path d="M55.5397 122.386C55.5397 122.386 64.937 107.947 60.9743 98.7098C56.7234 88.7821 49.0964 94.6728 50.8359 107.268C52.0401 115.887 55.5397 122.386 55.5397 122.386Z" fill="#7F784B"/>
<path d="M60.5316 132.128C60.5316 132.128 43.4662 134.445 36.8171 126.917C29.6636 118.822 38.2581 114.446 48.8802 121.407C56.1675 126.175 60.5316 132.128 60.5316 132.128Z" fill="#7F784B"/>
<path d="M63.4444 139.522C63.4444 139.522 78.0396 130.367 78.3278 120.326C78.6366 109.523 69.2393 111.675 65.5339 123.827C63.0019 132.159 63.4444 139.522 63.4444 139.522Z" fill="#7F784B"/>
<path d="M34.81 95.6614C42.5605 103.395 49.7242 111.758 55.4573 121.109C61.0977 130.315 65.2251 140.346 68.1894 150.716C68.9716 153.435 69.6715 156.185 70.3097 158.935H69.1363C67.4174 151.623 65.2765 144.404 62.4357 137.442C58.4936 127.761 53.1517 118.73 46.6776 110.543C42.756 105.589 38.4845 100.934 34.0072 96.475C33.4823 95.9395 34.2851 95.1362 34.81 95.6614Z" fill="#49421F"/>
<path d="M205.278 113.2H279.488C279.838 113.2 280.126 112.911 280.126 112.561V0.638498C280.126 0.288354 279.838 0 279.488 0H205.278C204.928 0 204.639 0.288354 204.639 0.638498V112.561C204.639 112.911 204.928 113.2 205.278 113.2ZM278.85 111.912H205.916V1.28729H278.85V111.912Z" fill="#C2AC96"/>
<path d="M205.783 16.4053H279.499C279.849 16.4053 280.138 16.1169 280.138 15.7668C280.138 15.4167 279.849 15.1283 279.499 15.1283H205.783C205.433 15.1283 205.145 15.4167 205.145 15.7668C205.145 16.1169 205.423 16.4053 205.783 16.4053Z" fill="#C2AC96"/>
<path d="M243.413 112.911C243.763 112.911 244.051 112.623 244.051 112.273V15.7668C244.051 15.4167 243.763 15.1283 243.413 15.1283C243.063 15.1283 242.775 15.4167 242.775 15.7668V112.273C242.765 112.623 243.053 112.911 243.413 112.911Z" fill="#C2AC96"/>
<path d="M51.5872 75.5385H163.449C163.799 75.5385 164.087 75.2501 164.087 74.9V0.638498C164.087 0.288354 163.799 0 163.449 0H51.5975C51.2475 0 50.9593 0.288354 50.9593 0.638498V74.8897C50.9491 75.2501 51.2373 75.5385 51.5872 75.5385ZM162.8 74.2512H52.2253V1.2873H162.8V74.2512Z" fill="#C2AC96"/>
<path d="M51.8857 16.6319H163.449C163.799 16.6319 164.087 16.3435 164.087 15.9934C164.087 15.6432 163.799 15.3549 163.449 15.3549H51.8857C51.5358 15.3549 51.2476 15.6432 51.2476 15.9934C51.2476 16.3435 51.5255 16.6319 51.8857 16.6319Z" fill="#C2AC96"/>
<path d="M108.918 75.5384C109.268 75.5384 109.556 75.2501 109.556 74.8999V15.983C109.556 15.6329 109.268 15.3445 108.918 15.3445C108.568 15.3445 108.28 15.6329 108.28 15.983V74.8999C108.269 75.2501 108.558 75.5384 108.918 75.5384Z" fill="#C2AC96"/>
<path d="M76.0737 101.264C76.4236 101.264 76.7118 100.975 76.7118 100.625V91.4803C76.7118 91.1302 76.4236 90.8418 76.0737 90.8418C75.7237 90.8418 75.4355 91.1302 75.4355 91.4803V100.625C75.4252 100.975 75.7134 101.264 76.0737 101.264Z" fill="#C2AC96"/>
<path d="M99.7366 111.943C100.087 111.943 100.375 111.655 100.375 111.305V102.16C100.375 101.81 100.087 101.521 99.7366 101.521C99.3867 101.521 99.0984 101.81 99.0984 102.16V111.305C99.0881 111.655 99.3764 111.943 99.7366 111.943Z" fill="#C2AC96"/>
<path d="M67.7674 102.036H113.869C114.219 102.036 114.507 101.748 114.507 101.398C114.507 101.048 114.219 100.759 113.869 100.759H67.7674C67.4175 100.759 67.1293 101.048 67.1293 101.398C67.1293 101.748 67.4175 102.036 67.7674 102.036Z" fill="#C2AC96"/>
<path d="M80.273 111.943H113.261C113.611 111.943 113.899 111.655 113.899 111.305C113.899 110.954 113.611 110.666 113.261 110.666H80.273C79.9231 110.666 79.6349 110.954 79.6349 111.305C79.6246 111.655 79.9128 111.943 80.273 111.943Z" fill="#C2AC96"/>
<path d="M14.1114 165.567C14.1114 170.778 79.9026 175 161.051 175C242.209 175 308 170.778 308 165.567C308 160.356 242.209 156.133 161.061 156.133C79.9026 156.133 14.1114 160.356 14.1114 165.567Z" fill="#A5410F"/>
<path d="M40.2137 164.908C40.2137 167.698 92.5729 169.954 157.17 169.954C221.767 169.954 274.127 167.698 274.127 164.908C274.127 162.117 221.767 159.861 157.17 159.861C92.5729 159.861 40.2137 162.117 40.2137 164.908Z" fill="#731F07"/>
<path d="M66.4808 153.785L55.9513 158.543L48.7464 148.955L58.8436 144.393L66.4808 153.785Z" fill="#E8A36F"/>
<path d="M20.7604 150.531C25.3921 154.496 35.3452 156.71 38.1654 160.943C40.9856 165.175 45.6894 167.369 48.6023 165.011C49.9506 163.919 52.5341 161.746 55.1176 159.923C55.3029 159.789 55.4881 159.666 55.6837 159.532C56.4762 158.986 57.2585 158.492 57.9996 158.08C58.1334 158.008 58.2672 157.925 58.401 157.864C58.4627 157.833 58.5348 157.802 58.5965 157.771C60.161 157.06 62.2814 157.318 61.3138 155.897C59.0185 152.508 55.7043 146.834 54.2324 146.474C53.6251 146.329 52.6267 146.556 51.4225 146.958C51.2063 147.03 50.9799 147.112 50.7535 147.194C50.1153 147.431 49.436 147.699 48.7464 147.987C48.5405 148.07 48.3244 148.163 48.1082 148.255C45.6585 149.275 43.1368 150.335 41.6958 150.366C38.7624 150.418 34.6453 149.542 32.525 148.338C29.9003 146.844 22.8189 144.095 21.5735 143.59C19.2782 142.653 16.1286 146.556 20.7604 150.531Z" fill="white"/>
<path d="M50.7638 147.194C53.3679 150.696 55.7763 154.331 57.9996 158.08C58.1334 158.008 58.2672 157.925 58.401 157.864C58.4627 157.833 58.5348 157.802 58.5966 157.771C56.3939 154.043 53.9957 150.438 51.4225 146.958C51.2167 147.03 50.9902 147.112 50.7638 147.194Z" fill="#C2AC96"/>
<path d="M48.1185 148.255C50.5476 152.096 52.8841 155.979 55.1279 159.923C55.3132 159.789 55.4984 159.666 55.694 159.532C53.4707 155.629 51.1549 151.777 48.7567 147.987C48.5405 148.08 48.3244 148.163 48.1185 148.255Z" fill="#C2AC96"/>
<path d="M151.911 102.386C151.911 102.386 121.29 102.046 109.474 111.037C97.6576 120.038 58.1129 144.27 58.1129 144.27L65.2354 155.691C65.2354 155.691 92.0377 148.358 105.83 141.777C119.622 135.197 133.445 128.626 133.445 128.626L163.737 156.133L151.911 102.386Z" fill="#2D4446"/>
<path d="M61.8593 142.653C64.6075 146.278 66.8307 150.294 69.5275 153.971C69.7848 154.321 69.1981 154.661 68.9408 154.311C66.2441 150.634 64.0311 146.628 61.2726 142.993C61.005 142.643 61.5917 142.303 61.8593 142.653Z" fill="#527676"/>
<path d="M107.693 132.921C101.301 136.803 94.9814 140.84 88.3426 144.311C81.8067 147.73 74.9517 150.418 67.8394 152.354C67.4174 152.467 67.2322 151.808 67.6542 151.695C74.8282 149.738 81.7243 147.019 88.3014 143.559C94.827 140.13 101.054 136.155 107.353 132.334C107.724 132.107 108.063 132.694 107.693 132.921Z" fill="#527676"/>
<path d="M185.444 58.1857C185.444 58.1857 183.705 85.6308 169.82 93.1383C159.115 98.926 137.851 79.9255 133.466 82.737C129.081 85.5587 127.28 87.3095 129.668 91.3052C132.056 95.301 160.381 119.667 175.522 112.458C190.663 105.239 194.811 70.3996 185.444 58.1857Z" fill="#A5410F"/>
<path d="M167.175 122.664C187.781 156.597 202.016 164.053 208.716 157.235C226.379 139.254 229.116 111.871 228.766 98.4523C228.725 96.7737 228.787 94.9715 228.931 93.0766C229.137 90.2857 229.508 87.3198 229.899 84.3333C231.381 73.108 229.569 64.375 228.437 61.5842C226.564 56.9499 220.512 55.8686 217.094 54.7152C214.984 53.9943 212.751 53.6853 210.517 53.8089L197.528 54.5298C197.528 54.5298 188.12 55.2301 185.835 56.6101C183.55 57.9901 181.821 64.8488 177.375 70.863C172.928 76.8772 171.498 83.1901 174.544 90.5226C177.2 96.8973 176.84 94.5389 176.346 104.559C175.738 116.845 164.684 118.555 167.175 122.664Z" fill="#FABD20"/>
<path d="M217.753 47.115L212.926 40.627L215.52 48.3302C209.406 51.2034 198.897 54.365 188.666 54.7564C187.873 54.7873 187.585 54.7873 186.453 54.8285C186.257 54.8388 186.062 54.7564 186.062 54.7564L184.569 48.6288L184.446 54.674C183.17 54.4886 180.988 54.3341 179.783 54.0149C179.783 54.0149 181.018 41.8216 179.907 37.898C178.785 33.9846 176.16 29.9785 177.128 26.4359C178.095 22.9035 183.406 10.7927 197.59 11.184C197.59 11.184 205.34 10.7927 209.066 19.1755C214.81 37.2904 220.841 44.3859 220.841 44.3859C220.882 44.9523 218.834 46.7545 217.753 47.115Z" fill="#131E07"/>
<path d="M183.128 37.9289C183.128 37.9289 179.495 37.6714 177.797 32.8209C175.038 24.9323 179.32 16.6216 189.201 13.7689C202.149 10.0306 204.63 13.841 207.985 18.5885C211.341 23.3361 211.814 31.0908 209.807 35.6735C207.872 40.1121 202.921 42.6249 202.921 42.6249L183.128 37.9289Z" fill="#131E07"/>
<path d="M182.49 36.0751C182.49 36.0751 180.874 36.5592 180.998 38.7218C181.121 40.8845 182.902 44.1593 184.93 43.284C186.957 42.4189 182.49 36.0751 182.49 36.0751Z" fill="#B05935"/>
<path d="M186.216 43.5621C186.546 44.5816 185.98 45.6732 184.961 46.0028C183.942 46.3323 182.851 45.7659 182.521 44.7464C182.192 43.7268 182.758 42.6352 183.777 42.3057C184.806 41.9761 185.897 42.5322 186.216 43.5621Z" fill="#FABD20"/>
<path d="M210.24 53.3146C210.24 53.3146 208.51 59.3082 202.561 61.4812C195.006 64.2411 193.421 61.0693 193.421 61.0693C193.524 59.9467 193.504 58.8551 193.359 57.712C193.308 57.2795 193.236 56.8366 193.143 56.3835C192.907 55.1477 192.536 53.8192 192.052 52.295C191.939 51.9346 191.816 51.5639 191.692 51.1828L191.682 51.1416C196.807 48.7318 200.719 45.4157 202.901 40.8021L203.611 40.1533L204.084 39.7104L204.249 40.0091L204.352 41.0286C204.846 45.8277 206.73 49.5145 210.24 53.3146Z" fill="#E8A36F"/>
<path d="M200.029 45.7247C199.432 48.5362 197.744 53.6442 193.143 56.3835C192.907 55.1477 192.536 53.8192 192.052 52.2951C191.939 51.9346 191.816 51.5639 191.692 51.1829C191.805 51.1726 191.908 51.1623 192.021 51.1417C195.006 50.7194 197.878 48.5362 200.029 45.7247Z" fill="#131E07"/>
<path d="M209.004 30.5449C209.797 33.4285 208.335 37.6405 204.599 38.7836L204.579 38.7939L204.496 38.8145C204.486 38.9999 204.455 39.1749 204.424 39.3706C204.414 39.453 204.404 39.5354 204.383 39.6178C204.383 39.6281 204.383 39.6281 204.373 39.6384C203.374 45.1892 197.199 50.0088 193.452 51.1519C192.114 51.5639 191.126 51.5124 190.817 51.5227C186.577 51.7595 184.333 46.5589 183.818 42.2541C183.746 41.6259 183.705 41.0183 183.705 40.4519C183.705 40.4107 183.705 40.3695 183.705 40.3386C183.705 40.3386 180.761 34.9217 179.752 32.4913C177.797 27.7644 179.228 22.0282 189.675 18.0736C200.122 14.1293 204.537 20.0715 206.267 23.3979C206.555 23.954 207.409 27.4863 206.977 28.2175C208.14 28.4543 208.737 29.5769 209.004 30.5449Z" fill="#E8A36F"/>
<path d="M190.714 37.3418C190.879 37.3006 191.002 37.1565 191.013 36.9814C191.033 36.5901 191.198 35.725 191.61 35.5499C192.196 35.2925 193.009 35.6632 193.02 35.6735C193.215 35.7662 193.452 35.6838 193.545 35.4881C193.637 35.2925 193.555 35.0556 193.359 34.9629C193.318 34.9423 192.217 34.4274 191.291 34.829C190.323 35.2513 190.23 36.7754 190.23 36.9505C190.22 37.1668 190.385 37.3521 190.611 37.3624C190.642 37.3624 190.683 37.3521 190.714 37.3418Z" fill="#131E07"/>
<path d="M186.741 38.6291C186.782 38.6188 186.813 38.6085 186.844 38.5879C187.029 38.4747 187.091 38.2378 186.978 38.0524C186.906 37.9288 186.247 36.8784 185.383 36.9505C184.58 37.0226 184.014 37.7641 183.952 37.8465C183.828 38.0215 183.859 38.2687 184.045 38.3923C184.22 38.5159 184.467 38.485 184.59 38.3099C184.703 38.1657 185.064 37.7641 185.444 37.7332C185.733 37.7126 186.144 38.1863 186.299 38.4541C186.402 38.5982 186.577 38.6703 186.741 38.6291Z" fill="#131E07"/>
<path d="M191.095 16.7245C198.969 14.0367 206.586 21.3382 207.615 24.3556C208.634 27.373 206.977 28.2278 206.977 28.2278C204.754 28.959 203.755 30.514 203.076 32.0176L202.324 34.0155C201.892 35.1689 200.194 34.8908 200.142 33.6653C200.101 32.6458 200.06 31.8837 200.07 31.8734C200.286 30.03 197.487 29.5769 195.727 28.9693C195.737 28.9693 195.737 28.9693 195.727 28.9693C192.67 27.9291 192.217 24.8087 192.217 24.8087C192.33 21.9664 179.578 26.0033 179.989 30.2463C180.442 34.9732 180.627 35.2925 180.627 35.2925C180.627 35.2925 179.722 36.7239 178.456 31.0187C177.2 25.3031 183.231 19.4021 191.095 16.7245Z" fill="#131E07"/>
<path d="M191.321 22.9653C188.789 25.8283 185.588 28.166 181.533 29.8137C183.674 27.8879 185.166 25.8386 185.969 23.6553L191.321 22.9653Z" fill="#131E07"/>
<path d="M208.377 37.8671C208.706 38.8866 208.14 39.9782 207.121 40.3078C206.102 40.6373 205.011 40.0709 204.681 39.0514C204.352 38.0318 204.918 36.9402 205.937 36.6107C206.956 36.2811 208.047 36.8372 208.377 37.8671Z" fill="#FABD20"/>
<g opacity="0.5">
<g opacity="0.5">
<g opacity="0.5">
<g opacity="0.5">
<g opacity="0.5">
<g opacity="0.5">
<g opacity="0.5">
<g opacity="0.5">
<g opacity="0.5">
<g opacity="0.5">
<g opacity="0.5">
<path opacity="0.5" d="M185.794 40.8227C185.907 41.2552 185.053 41.8525 183.828 42.2541C183.756 41.6259 183.715 41.0183 183.715 40.4519C184.827 40.2975 185.691 40.421 185.794 40.8227Z" fill="#B05935"/>
</g>
</g>
</g>
</g>
</g>
</g>
</g>
</g>
</g>
</g>
</g>
<path d="M191.157 45.7865C191.641 45.5908 191.836 45.1995 191.857 45.1686C191.918 45.0553 191.867 44.9111 191.754 44.8493C191.641 44.7875 191.496 44.839 191.435 44.9523C191.424 44.9729 191.157 45.4775 190.467 45.4054C190.333 45.3951 190.22 45.4878 190.21 45.6114C190.2 45.7453 190.292 45.8586 190.416 45.8689C190.714 45.9101 190.961 45.8689 191.157 45.7865Z" fill="#B05935"/>
<path d="M190.385 44.355C190.395 44.3447 190.405 44.3447 190.426 44.3447C192.001 43.6959 192.248 42.2542 192.248 42.1924C192.279 41.9967 192.145 41.8113 191.949 41.7804C191.754 41.7495 191.569 41.8834 191.538 42.0791C191.527 42.1306 191.342 43.181 190.148 43.665C190.138 43.665 190.128 43.6753 190.117 43.6753C188.923 44.1593 188.162 43.6753 188.162 43.665C187.997 43.5517 187.771 43.6032 187.657 43.768C187.544 43.9328 187.596 44.1593 187.76 44.2726C187.791 44.3035 188.831 44.9729 190.385 44.355Z" fill="#B05935"/>
<path d="M188.687 41.4715C188.625 41.4921 188.563 41.4921 188.501 41.4715L186.793 41.0183C186.679 40.9875 186.587 40.8948 186.556 40.7815C186.525 40.6682 186.556 40.5446 186.638 40.4519C187.606 39.4427 188.018 38.1966 187.925 36.5283C187.915 36.3429 188.059 36.1781 188.244 36.1678C188.429 36.1575 188.594 36.3017 188.604 36.4871C188.697 38.1348 188.347 39.4221 187.503 40.4931L188.687 40.8021C188.872 40.8536 188.975 41.0389 188.923 41.214C188.882 41.3582 188.79 41.4406 188.687 41.4715Z" fill="#B05935"/>
<path d="M189.284 31.2349C188.46 31.616 187.709 30.5758 188.337 29.927C188.666 29.5872 189.15 29.3091 189.86 29.237C192.948 28.9178 194.811 31.1731 194.811 31.1731C194.811 31.1731 191.702 30.5655 190.158 30.9363C189.798 31.0187 189.51 31.1319 189.284 31.2349Z" fill="#131E07"/>
<path d="M184.755 32.8312C185.64 32.6664 185.66 31.3791 184.765 31.2143C184.302 31.1319 183.746 31.1834 183.118 31.5336C180.411 33.0577 180.885 35.1895 180.885 35.1895C180.885 35.1895 182.387 33.6756 183.859 33.0886C184.209 32.9547 184.497 32.8826 184.755 32.8312Z" fill="#131E07"/>
<g opacity="0.5">
<g opacity="0.5">
<g opacity="0.5">
<g opacity="0.5">
<g opacity="0.5">
<g opacity="0.5">
<g opacity="0.5">
<g opacity="0.5">
<g opacity="0.5">
<g opacity="0.5">
<g opacity="0.5">
<path opacity="0.5" d="M192.464 39.0308C192.587 39.5251 193.915 39.6075 195.428 39.2161C196.941 38.8248 198.053 38.1142 197.929 37.6199C197.806 37.1255 196.478 37.0432 194.965 37.4345C193.462 37.8258 192.34 38.5364 192.464 39.0308Z" fill="#B05935"/>
</g>
</g>
</g>
</g>
</g>
</g>
</g>
</g>
</g>
</g>
</g>
<path d="M204.599 38.7939L204.579 38.8042L204.496 38.8248C204.486 39.0102 204.455 39.1852 204.424 39.3809C204.414 39.4633 204.404 39.5457 204.383 39.6281C204.383 39.6384 204.383 39.6384 204.383 39.6487C203.93 39.7002 203.354 39.6899 202.767 39.4736C202.427 39.35 202.077 39.1543 201.769 38.8557C201.604 38.7012 201.604 38.4438 201.758 38.2893C201.913 38.1245 202.17 38.1142 202.324 38.2687C202.674 38.5982 203.086 38.763 203.477 38.8248C203.745 38.866 203.992 38.866 204.218 38.8454C204.362 38.8248 204.496 38.8042 204.599 38.7939Z" fill="#B05935"/>
<path d="M203.621 36.6416C203.776 36.5695 203.868 36.415 203.858 36.2399C203.632 33.3873 206.534 31.307 206.565 31.2864C206.75 31.1628 206.791 30.9054 206.668 30.72C206.544 30.5346 206.287 30.4934 206.102 30.617C205.968 30.7097 202.777 32.9651 203.045 36.2914C203.065 36.518 203.261 36.6828 203.477 36.6622C203.529 36.6725 203.58 36.6519 203.621 36.6416Z" fill="#B05935"/>
<path d="M206.586 34.1802C206.627 34.1597 206.678 34.1288 206.709 34.0876C206.863 33.9228 206.853 33.6653 206.689 33.5212C206.647 33.48 205.577 32.5119 204.012 33.0062C203.796 33.0783 203.683 33.3049 203.755 33.5109C203.827 33.7271 204.054 33.8404 204.259 33.7683C205.371 33.4079 206.122 34.0979 206.133 34.0979C206.267 34.2317 206.441 34.2523 206.586 34.1802Z" fill="#B05935"/>
<path d="M203.982 64.7458C205.577 63.8189 206.658 62.9436 206.761 62.8612L206.297 62.2948C206.236 62.3463 200.07 67.3616 195.161 66.0125C192.989 65.4152 191.363 63.6542 190.313 60.7603L189.623 61.0075C190.755 64.1382 192.557 66.0537 194.975 66.7128C198.115 67.5778 201.614 66.1155 203.982 64.7458Z" fill="#E5A501"/>
<path d="M206.143 74.4571L204.65 82.5414C204.65 82.5414 192.433 80.9142 184.302 80.5744L186.319 73.1183C186.319 73.1183 198.104 73.1698 206.143 74.4571Z" fill="#E5A501"/>
<path d="M206.308 157.647C206.143 157.771 205.906 157.771 205.742 157.637C205.546 157.472 205.515 157.194 205.68 156.998C217.527 142.622 222.158 123.57 223.96 110.11C225.915 95.5173 225.051 84.1994 225.04 84.0861C225.02 83.8389 225.205 83.6124 225.462 83.5918C225.709 83.5712 225.936 83.7565 225.957 84.014C225.967 84.1273 226.842 95.5482 224.876 110.234C223.723 118.864 221.829 126.927 219.246 134.188C216.014 143.281 211.691 151.149 206.4 157.575C206.359 157.606 206.339 157.627 206.308 157.647Z" fill="#E5A501"/>
<path d="M200.667 134.507L200.657 134.517C200.451 134.661 200.173 134.62 200.019 134.414C194.42 126.711 187.472 122.653 182.634 120.614C177.395 118.411 173.443 118.019 173.402 118.009C173.155 117.988 172.97 117.762 172.99 117.515C173.011 117.267 173.237 117.082 173.484 117.103C173.649 117.113 177.612 117.515 182.984 119.77C187.935 121.861 195.037 126 200.75 133.868C200.904 134.074 200.863 134.352 200.667 134.507Z" fill="#E5A501"/>
<path d="M198.938 119.688C198.804 119.79 198.619 119.811 198.454 119.739C198.362 119.687 188.666 114.971 180.37 115.352C180.123 115.362 179.907 115.167 179.897 114.919C179.886 114.672 180.082 114.456 180.329 114.446C188.861 114.065 198.454 118.73 198.856 118.925C199.082 119.039 199.175 119.306 199.062 119.533C199.041 119.595 198.99 119.646 198.938 119.688Z" fill="#E5A501"/>
<path d="M169.964 117.926L177.962 122.036C178.723 121.057 179.402 119.924 179.999 118.637C183.715 110.687 184.487 97.268 185.074 84.2508C185.753 69.1329 192.454 54.7255 192.454 54.7255C190.611 54.1591 188.913 54.9005 187.287 55.4155C186.093 55.7965 185.074 56.5895 184.415 57.6605C181.77 61.9034 175.502 69.9155 172.681 76.6404C169.491 84.2508 174.236 89.7502 175.007 95.4246C175.574 99.5851 172.599 109.739 170.973 114.868C170.376 116.732 169.964 117.926 169.964 117.926Z" fill="#A5410F"/>
<path d="M188.656 57.6811C188.964 55.5493 190.879 54.1076 192.896 54.2414C193.123 55.9201 193.39 59.2259 193.534 60.9148C191.054 63.8601 187.987 67.2792 187.987 67.2792C187.431 64.5398 188.254 60.3999 188.656 57.6811Z" fill="#731F07"/>
<path d="M169.964 117.926L177.961 122.036C178.723 121.057 179.402 119.924 179.999 118.637C178.147 117.957 173.999 116.382 170.962 114.868C170.376 116.732 169.964 117.926 169.964 117.926Z" fill="#731F07"/>
<path d="M108.362 141.201L102.197 150.974L90.9054 146.947L96.8135 137.565L108.362 141.201Z" fill="#E8A36F"/>
<path d="M93.5095 139.493L108.177 143.798C108.177 143.798 113.56 139.431 121.31 134.014C129.781 128.103 136.389 126.043 139.137 118.34C139.137 118.34 154.01 156.63 178.373 165.589C193.442 171.13 210.291 156.146 210.291 156.146C204.98 139.081 161.967 95.0042 146.877 86.9921C146.425 86.7552 146.064 86.4771 145.704 86.3021C145.303 86.0961 144.881 85.9725 144.428 85.9004C144.119 85.8592 143.8 85.8386 143.47 85.8489C142.688 85.8798 141.855 86.0549 140.959 86.3844C125.273 91.9456 93.5095 139.493 93.5095 139.493Z" fill="#2D4446"/>
<path d="M156.223 147.431C148.874 139.481 142.946 130.315 138.715 120.357C138.478 119.79 139.302 119.306 139.539 119.873C143.728 129.759 149.605 138.863 156.892 146.752C157.314 147.205 156.645 147.884 156.223 147.431Z" fill="#131E07"/>
<path d="M139.456 119.935C135.504 125.063 130.584 129.327 124.913 132.457C124.367 132.756 123.883 131.932 124.429 131.634C129.946 128.585 134.783 124.445 138.633 119.451C138.993 118.967 139.827 119.44 139.456 119.935Z" fill="#131E07"/>
<path d="M143.481 85.8265C144.973 88.1951 145.848 89.6369 145.869 89.6884C145.982 89.8738 146.229 89.9356 146.414 89.8223C146.589 89.709 146.661 89.4618 146.538 89.2765C146.507 89.2353 145.755 87.9789 144.428 85.878C144.129 85.8368 143.81 85.8162 143.481 85.8265Z" fill="#527676"/>
<path d="M111.656 141.036C111.841 141.057 112.016 140.933 112.067 140.748C112.129 140.542 112.006 140.325 111.789 140.264L96.1547 135.99C95.9488 135.928 95.7327 136.052 95.6709 136.268C95.6092 136.474 95.7327 136.69 95.9488 136.752L111.584 141.026C111.604 141.026 111.625 141.036 111.656 141.036Z" fill="#527676"/>
<path d="M181.76 162.673C187.554 163.157 192.999 161.798 196.921 160.345C202.479 158.296 206.277 155.629 206.318 155.608C206.493 155.485 206.534 155.237 206.411 155.062C206.287 154.887 206.04 154.846 205.865 154.97C205.824 155.001 202.098 157.606 196.633 159.625C191.61 161.478 184.024 163.198 176.49 160.871C170.53 159.027 162.193 149.584 152.405 133.539C144.973 121.376 139.281 109.616 139.22 109.502C139.148 109.348 138.983 109.266 138.818 109.286C138.654 109.307 138.52 109.43 138.479 109.595C138.458 109.677 136.544 117.988 126.992 125.424C116.679 133.456 109.659 139.8 109.597 139.862C109.432 140.006 109.422 140.253 109.566 140.418C109.71 140.583 109.957 140.593 110.122 140.449C110.194 140.387 117.183 134.054 127.476 126.042C135.401 119.873 138.159 113.251 138.962 110.769C140.455 113.776 145.478 123.724 151.725 133.961C161.761 150.397 170.015 159.707 176.253 161.633C178.106 162.189 179.948 162.518 181.76 162.673Z" fill="#527676"/>
<path d="M191.898 126.67C192.34 127.061 192.804 127.452 193.277 127.823C193.38 127.906 193.483 127.978 193.586 128.06C193.843 128.245 194.1 128.441 194.358 128.627C205.515 136.525 224.474 139.007 224.474 139.007C226.059 137.298 227.603 135.393 228.334 133.014C233.182 117.113 231.031 87.4949 231.371 77.8762C231.813 65.6726 231.154 59.2464 224.68 55.9201C218.206 52.5937 209.354 52.8203 209.354 52.8203C206.534 56.8469 201.933 61.2443 201.933 61.2443C202.016 61.8725 202.088 62.5316 202.139 63.201C203.642 81.3467 195.325 114.013 192.67 123.827C192.196 125.64 191.898 126.67 191.898 126.67Z" fill="#A5410F"/>
<path d="M207.234 110.759C207.234 110.759 213.286 120.326 223.98 121.418L225.143 118.74C225.143 118.74 217.136 118.627 208.974 108.915L207.234 110.759Z" fill="#731F07"/>
<path d="M191.898 126.67C192.34 127.061 192.804 127.452 193.277 127.823C193.38 127.906 193.483 127.978 193.586 128.06C193.843 128.245 194.101 128.441 194.358 128.626C205.515 136.525 224.474 139.007 224.474 139.007C226.059 137.298 227.325 135.269 228.334 133.014C213.523 131.675 196.88 125.455 192.68 123.817C192.196 125.64 191.898 126.67 191.898 126.67Z" fill="#731F07"/>
<path d="M191.383 126.67C191.857 127.061 192.361 127.452 192.876 127.823C192.989 127.906 193.092 127.978 193.205 128.06C203.055 102.87 205 63.5203 205 63.5203L202.16 63.1907C204.084 84.7349 191.383 126.67 191.383 126.67Z" fill="#731F07"/>
<path d="M208.696 50.6988C208.696 50.6988 211.485 49.2982 214.995 52.9644C214.995 52.9644 212.02 61.8107 202.324 65.9713L201.954 61.234C201.954 61.234 207.09 55.0344 208.696 50.6988Z" fill="#731F07"/>
<path d="M130.018 60.3587L131.397 58.3917L153.815 59.5966L166.886 91.2023L165.209 92.2321L142.153 88.3599L130.018 60.3587Z" fill="white"/>
<path d="M131.397 58.3917L117.399 56.5998L116.082 58.5462L130.018 60.3587L131.397 58.3917Z" fill="white"/>
<path d="M152.199 60.9663L165.713 92.7676C165.713 92.7676 150.984 91.6863 142.4 90.0076L130.008 60.3587L152.199 60.9663Z" fill="#A5410F"/>
<path d="M148.04 67.928L149.214 70.9042L138.653 70.966L137.037 67.8971L148.04 67.928Z" fill="#731F07"/>
<path d="M130.018 60.3587L114.836 58.3917L128.927 88.0304L142.41 90.0077L130.018 60.3587Z" fill="#731F07"/>
<path d="M119.169 67.5057C119.169 67.5057 116.565 69.8641 117.831 71.5839C119.097 73.3037 124.141 73.3964 125.911 73.3037C127.681 73.211 124.326 70.8218 122.504 70.4511C121.434 70.2348 120.096 69.4315 120.096 69.4315L119.169 67.5057Z" fill="#E8A36F"/>
<path d="M121.65 73.3243C121.65 73.3243 118.974 75.9092 120.476 77.9483C121.979 79.9977 127.959 80.0903 130.069 79.9874C132.169 79.8844 128.217 76.8875 126.035 76.6095C123.852 76.3314 123.276 75.281 123.276 75.281L121.65 73.3243Z" fill="#E8A36F"/>
<path d="M122.772 76.4241C122.772 76.4241 120.404 78.7001 121.732 80.5126C123.06 82.3148 128.34 82.4075 130.203 82.3148C132.056 82.2221 128.567 79.5754 126.632 79.3283C124.696 79.0811 124.192 78.1543 124.192 78.1543L122.772 76.4241Z" fill="#E8A36F"/>
<path d="M119.53 69.8023C119.53 69.8023 116.853 72.3872 118.356 74.4262C119.859 76.4756 125.839 76.5683 127.949 76.4653C130.049 76.3623 126.096 73.3655 123.904 73.0875C121.722 72.8094 121.146 71.759 121.146 71.759L119.53 69.8023Z" fill="#E8A36F"/>
<path d="M211.907 102.355C208.099 104.302 204.023 105.476 199.854 105.558C198.403 105.589 196.952 105.496 195.521 105.301C180.442 103.251 167.061 89.7502 164.221 86.5886C161.215 83.2519 162.111 76.661 164.138 74.6116C167.813 70.9145 181.502 81.4188 193.483 84.2715C201.964 86.2899 208.562 75.2501 211.001 66.342C215.386 50.359 226.142 57.506 226.142 57.506C238.812 67.4543 229.569 93.3443 211.907 102.355Z" fill="#A5410F"/>
<path d="M152.415 82.6649C152.415 82.6649 145.179 82.9018 145.2 84.6319C145.231 86.4547 151.993 85.9089 151.993 85.9089C151.993 85.9089 148.854 87.1241 149.018 87.9583C149.43 90.0385 158.364 89.019 160.577 88.6276C162.8 88.2363 166.773 88.6585 169.542 87.6596C171.426 86.9799 176.479 80.6155 174.956 77.1141C174.472 76.0122 171.374 74.7249 169.593 73.695C167.772 72.6549 164.962 71.6148 163.119 71.2852C161.936 71.0793 160.155 69.7302 157.901 69.5654L160.011 74.1997C160.299 74.3747 159.177 75.4458 159.177 75.4458C159.177 75.4458 145.776 73.5715 144.788 75.1574C143.46 77.2686 149.327 77.8968 151.941 78.01C151.941 78.01 144.459 78.8854 143.862 79.977C142.699 82.1603 152.415 82.6649 152.415 82.6649Z" fill="#E8A36F"/>
<path d="M211.907 102.355C208.294 104.57 204.434 106.053 199.854 105.558C198.403 105.404 196.952 105.496 195.521 105.301C196.735 103.035 199.195 99.9765 203.786 99.2453C207.924 98.5965 210.466 100.502 211.907 102.355Z" fill="#731F07"/>
<path d="M203.035 81.9029C201.902 82.7679 200.688 83.53 199.391 84.1067C192.598 87.1447 181.657 79.3386 181.193 78.9987C180.988 78.8545 180.946 78.5662 181.091 78.3602C181.235 78.1543 181.523 78.1131 181.729 78.2572C181.842 78.3396 192.711 86.0943 199.02 83.2726C208.16 79.1841 213.163 65.6314 213.214 65.4976C213.297 65.2607 213.564 65.1371 213.801 65.2195C214.038 65.3019 214.161 65.5697 214.079 65.8065C213.893 66.3008 210.157 76.4138 203.035 81.9029Z" fill="#731F07"/>
<path d="M215.993 100.306C211.917 103.447 208.068 105.383 204.517 106.063C198.341 107.247 191.538 105.27 186.926 103.406C181.945 101.387 178.363 99.0599 178.332 99.0393C178.126 98.9054 178.064 98.617 178.198 98.4111C178.332 98.2051 178.62 98.1433 178.826 98.2772C178.97 98.3699 192.907 107.36 204.342 105.167C215.787 102.963 227.5 87.3506 227.614 87.1859C227.758 86.9799 228.046 86.9387 228.252 87.0932C228.458 87.2477 228.499 87.5257 228.344 87.7317C228.314 87.7729 225.318 91.7892 220.923 96.0219C219.246 97.6387 217.599 99.0599 215.993 100.306Z" fill="#731F07"/>
<path d="M68.4159 163.692C74.468 164.444 83.9888 160.809 88.672 162.776C93.3552 164.743 98.4913 163.991 99.6235 160.418C100.282 158.368 101.61 153.837 103.144 150.49C103.236 150.274 103.339 150.068 103.442 149.862C103.576 149.584 103.72 149.306 103.864 149.048C104.06 148.688 104.327 148.358 104.595 148.06C104.77 147.864 104.945 147.678 105.109 147.514C105.799 146.772 106.252 146.226 105.223 145.804C101.445 144.249 95.5475 141.335 94.1168 141.839C93.5919 142.025 92.9743 142.632 92.295 143.466C92.1509 143.642 91.9965 143.837 91.8524 144.043C91.5128 144.486 91.1731 144.98 90.8129 145.495C90.6894 145.681 90.5555 145.876 90.4217 146.072C88.8058 148.451 87.1075 151.108 85.8003 152.004C83.3815 153.672 79.46 155.196 77.0309 155.371C74.0151 155.577 66.5941 157.184 65.2766 157.452C62.8475 157.936 62.3637 162.93 68.4159 163.692Z" fill="white"/>
<path d="M91.8524 144.043C96.1033 145.382 100.344 146.721 104.595 148.06C104.77 147.864 104.945 147.678 105.109 147.514C100.838 146.165 96.5665 144.816 92.295 143.466C92.1509 143.652 92.0068 143.847 91.8524 144.043Z" fill="#C2AC96"/>
<path d="M90.4217 146.062C94.6005 147.73 98.8411 149.203 103.154 150.48C103.246 150.263 103.349 150.057 103.452 149.851C99.1808 148.585 94.9608 147.133 90.8128 145.485C90.6893 145.681 90.5555 145.876 90.4217 146.062Z" fill="#C2AC96"/>
<path d="M244.648 142.231C244.648 142.231 244.741 143.466 245.122 145.392C245.173 145.681 245.245 145.979 245.317 146.298C246.079 149.676 247.674 154.589 250.937 158.821C251.112 159.048 251.297 159.274 251.483 159.501C252.666 160.932 254.056 162.261 255.672 163.404C255.836 163.517 256.001 163.631 256.166 163.744C258.759 165.464 261.94 166.71 265.82 167.153C266.067 167.184 266.314 167.204 266.561 167.225C267.323 167.297 268.116 167.328 268.939 167.328C272.243 167.328 275.135 166.782 277.678 165.865C277.863 165.804 278.038 165.732 278.213 165.659C281.733 164.279 284.543 162.158 286.776 159.738C286.951 159.552 287.116 159.367 287.281 159.182C289.391 156.782 290.955 154.125 292.108 151.643C292.18 151.479 292.262 151.314 292.334 151.159C294.506 146.309 295.103 142.251 295.103 142.251H244.648V142.231Z" fill="#2D4446"/>
<path d="M284.841 142.231C286.673 145.846 288.948 149.368 292.108 151.624C292.18 151.459 292.262 151.294 292.334 151.14C289.36 148.987 287.188 145.651 285.449 142.231H284.841Z" fill="#131E07"/>
<path d="M277.379 142.231C280.436 144.63 282.906 147.74 284.563 151.262C285.593 153.456 286.828 156.772 286.787 159.707C286.962 159.522 287.126 159.336 287.291 159.151C287.198 156.648 286.323 153.991 285.5 152.014C283.915 148.214 281.404 144.846 278.254 142.22H277.379V142.231Z" fill="#131E07"/>
<path d="M255.672 163.383C255.836 163.497 256.001 163.61 256.166 163.723C257.679 156.041 255.404 147.977 250.052 142.22H249.301C254.745 147.833 257.092 155.773 255.672 163.383Z" fill="#131E07"/>
<path d="M262.763 162.91C263.741 164.352 264.76 165.752 265.82 167.132C266.067 167.163 266.314 167.184 266.561 167.204C265.048 165.278 263.628 163.28 262.3 161.221C261.539 160.037 260.18 158.306 260.674 156.782C261.302 154.867 263.947 155.67 265.295 156.144C270.359 157.905 274.219 161.828 277.678 165.834C277.863 165.773 278.038 165.701 278.213 165.629C276.648 163.816 275.032 162.055 273.252 160.459C271.245 158.657 269.021 157.081 266.531 156.03C264.863 155.33 261.816 154.115 260.458 156.02C258.955 158.142 261.652 161.262 262.763 162.91Z" fill="#131E07"/>
<path d="M245.122 145.382C245.173 145.67 245.245 145.969 245.317 146.288C248.765 149.532 250.783 154.115 250.937 158.811C251.112 159.038 251.297 159.264 251.483 159.491C251.513 154.156 249.208 148.883 245.122 145.382Z" fill="#131E07"/>
<path d="M255.589 142.231C256.619 143.199 257.679 144.136 258.759 145.052C261.384 147.267 264.132 149.316 267.004 151.201C268.393 152.107 269.814 153.116 271.348 153.775C272.531 154.29 273.952 154.537 275.063 153.703C277.41 151.952 276.144 148.42 275.104 146.298C274.363 144.795 273.385 143.415 272.212 142.231H271.44C272.943 143.662 274.147 145.382 274.971 147.308C275.547 148.667 276.134 150.315 275.712 151.788C275.115 153.899 273.046 153.971 271.348 153.178C268.754 151.963 266.314 150.14 263.998 148.461C261.343 146.535 258.801 144.455 256.392 142.231H255.589Z" fill="#131E07"/>
<path d="M269.876 143.672C255.943 143.672 244.648 143.027 244.648 142.231C244.648 141.434 255.943 140.789 269.876 140.789C283.808 140.789 295.103 141.434 295.103 142.231C295.103 143.027 283.808 143.672 269.876 143.672Z" fill="#131E07"/>
<path d="M257.02 89.4C258.533 91.2126 259.624 97.9271 262.516 98.9981C264.503 99.7396 265.563 96.8664 261.703 93.231C259.223 90.8933 258.111 88.0922 257.638 86.4032C258.317 83.4373 259.202 80.3993 260.355 77.6393C262.578 79.699 266.15 82.6134 267.169 81.2232C268.28 79.699 264.956 74.9103 263.103 72.4592C263.968 71.2028 264.925 70.1112 265.985 69.2462C267.724 67.825 269.742 67.0114 272.089 67.0732C273.777 67.1144 275.331 67.7323 276.72 68.7621C274.734 72.6961 271.811 79.3385 273.859 80.8627C275.763 82.2839 278.522 76.7846 280.251 72.6755C282.68 76.4241 284.316 81.5733 285.016 86.5371C284.543 87.4228 283.719 88.4629 282.299 89.4824C278.542 92.1909 274.075 97.649 276.309 98.8642C278.542 100.079 280.868 96.8664 282.536 94.0034C283.39 92.5307 284.347 91.3464 285.387 90.5638C285.418 91.4288 285.428 92.2836 285.397 93.0972C284.81 108.699 269.577 108.699 269.577 108.699C269.577 108.699 254.323 105.177 257.02 89.4ZM276.185 89.709C277.698 89.6987 280.096 86.8769 281.218 85.3116C282.34 83.7359 281.445 82.6752 280.364 82.9739C280.354 82.9739 280.333 82.9842 280.323 82.9842C278.799 83.4373 274.229 89.7296 276.185 89.709ZM262.897 85.9707C262.887 85.9707 262.866 85.9604 262.856 85.9604C261.775 85.6617 260.89 86.3826 261.394 87.7626C262.063 89.5751 262.949 90.2857 264.297 89.606C265.141 89.1735 264.421 86.4238 262.897 85.9707Z" fill="#7F784B"/>
<path d="M271.214 85.4867C269.886 92.2733 270.308 99.2865 270.812 106.135C271.358 113.57 272.099 121.006 271.811 128.472C271.646 132.643 271.152 136.803 270.143 140.861C270.061 141.201 269.526 141.057 269.608 140.717C273.231 126.052 269.886 111.119 269.783 96.3C269.762 92.6337 269.968 88.9572 270.679 85.3528C270.751 84.9924 271.276 85.1468 271.214 85.4867Z" fill="#131E07"/>
<path d="M278.058 108.761C278.213 111.119 275.135 117.185 276.834 119.76C278.007 121.531 280.549 119.832 279.571 114.621C278.944 111.263 279.705 108.349 280.323 106.701C282.618 104.714 285.129 102.778 287.682 101.223C288.269 104.199 289.432 108.658 291.068 108.133C292.859 107.556 293.003 101.737 292.952 98.6583C294.393 98.1536 295.803 97.8344 297.182 97.7623C299.426 97.6387 301.536 98.1742 303.389 99.6057C304.727 100.636 305.612 102.046 306.137 103.704C302.215 105.702 295.937 109.348 296.699 111.789C297.398 114.054 302.874 111.243 306.682 108.946C306.435 113.406 304.717 118.524 302.37 122.952C301.464 123.395 300.188 123.735 298.438 123.724C293.806 123.694 286.982 125.465 288.063 127.772C289.154 130.068 292.921 128.853 295.957 127.525C297.512 126.845 298.984 126.454 300.291 126.433C299.807 127.154 299.313 127.844 298.798 128.482C289.123 140.737 276.823 131.747 276.823 131.747C276.823 131.747 266.582 119.914 278.058 108.761ZM293.353 120.326C294.578 121.201 298.181 120.347 300.013 119.739C301.845 119.131 301.752 117.741 300.702 117.35C300.692 117.35 300.672 117.339 300.661 117.329C299.159 116.804 291.768 119.183 293.353 120.326ZM284.831 109.461C284.821 109.451 284.81 109.441 284.8 109.42C284.111 108.545 282.968 108.596 282.556 110.017C282.031 111.871 282.32 112.973 283.812 113.22C284.749 113.375 285.788 110.728 284.831 109.461Z" fill="#7F784B"/>
<path d="M291.851 113.962C288.269 117.257 284.718 120.686 281.826 124.62C279.633 127.607 277.935 130.882 276.401 134.249C275.3 136.669 274.25 139.11 273.169 141.541C273.025 141.86 272.552 141.582 272.696 141.263C274.456 137.298 276.092 133.25 278.151 129.419C279.983 126.021 282.258 122.931 284.862 120.079C286.951 117.793 289.185 115.661 291.46 113.56C291.717 113.333 292.108 113.714 291.851 113.962Z" fill="#131E07"/>
<path d="M264.811 134.558C264.811 134.558 252.573 143.631 242.815 131.448C242.301 130.81 241.796 130.13 241.313 129.409C242.62 129.419 244.092 129.801 245.656 130.47C248.693 131.778 252.48 132.972 253.551 130.666C254.621 128.359 247.787 126.629 243.155 126.701C241.405 126.721 240.129 126.392 239.223 125.959C236.835 121.552 235.086 116.444 234.808 111.984C238.637 114.25 244.123 117.031 244.812 114.755C245.553 112.304 239.244 108.709 235.312 106.732C235.816 105.064 236.702 103.653 238.029 102.613C239.872 101.171 241.982 100.615 244.226 100.728C245.594 100.79 247.015 101.099 248.456 101.593C248.425 104.673 248.61 110.501 250.401 111.057C252.048 111.572 253.18 107.103 253.746 104.127C256.32 105.661 258.841 107.577 261.147 109.554C261.775 111.202 262.557 114.106 261.95 117.463C261.013 122.674 263.576 124.363 264.729 122.581C266.406 119.986 263.298 113.951 263.432 111.593C274.97 122.653 264.811 134.558 264.811 134.558ZM240.891 120.305C240.87 120.316 240.86 120.316 240.85 120.326C239.8 120.728 239.717 122.118 241.549 122.715C243.382 123.302 246.984 124.136 248.209 123.251C249.794 122.097 242.373 119.77 240.891 120.305ZM257.699 116.083C259.181 115.826 259.469 114.724 258.934 112.87C258.522 111.459 257.38 111.408 256.69 112.293C256.68 112.304 256.669 112.314 256.659 112.334C255.712 113.601 256.762 116.238 257.699 116.083Z" fill="#7F784B"/>
<path d="M250.062 116.485C253.562 119.657 257.113 122.849 260.139 126.495C262.362 129.172 264.143 132.138 265.676 135.259C266.839 137.617 267.92 140.027 269.001 142.426C269.145 142.746 268.671 143.024 268.527 142.704C266.819 138.925 265.172 135.084 263.031 131.531C261.147 128.4 258.78 125.64 256.217 123.055C254.097 120.923 251.884 118.895 249.661 116.876C249.403 116.629 249.794 116.248 250.062 116.485Z" fill="#131E07"/>
</svg>
